<?xml version="1.0"?>
<svg version="1.1" xmlns="http://www.w3.org/2000/svg" xmlns:xlink="http://www.w3.org/1999/xlink" width="100" height="100">
    <desc iVinci="yes" version="4.6" gridStep="20" showGrid="no" snapToGrid="no" codePlatform="0"/>
    <g id="Layer1" name="Layer 1" opacity="1">
        <g id="Shape1">
            <desc shapeID="1" type="0" basicInfo-basicType="0" basicInfo-roundedRectRadius="12" basicInfo-polygonSides="6" basicInfo-starPoints="5" bounding="rect(-9.32553,-12.5032,18.6511,25.0063)" text="" font-familyName="" font-pixelSize="20" font-bold="0" font-underline="0" font-alignment="1" strokeStyle="0" markerStart="0" markerEnd="0" shadowEnabled="0" shadowOffsetX="0" shadowOffsetY="2" shadowBlur="4" shadowOpacity="160" blurEnabled="0" blurRadius="4" transform="matrix(1.1465,0,0,1.14786,76.4615,24.9758)" pers-center="0,0" pers-size="0,0" pers-start="0,0" pers-end="0,0" locked="0" mesh="" flag=""/>
            <path id="shapePath1" d="M67.1608,11.345 L65.8549,14.5338 C65.6187,15.11 65.8916,15.7563 66.4568,16.0168 C75.1507,20.0332 80.9497,28.6388 81.414,38.2131 C81.4438,38.8352 81.9402,39.3311 82.5628,39.3277 L86.0045,39.3082 C86.6489,39.3047 87.1786,38.7687 87.1522,38.1247 C86.65,26.2822 79.4661,15.6231 68.6867,10.7229 C68.0997,10.4566 67.405,10.7481 67.1608,11.345 Z" style="stroke:none;fill-rule:nonzero;fill:#666666;fill-opacity:1;"/>
        </g>
        <g id="Shape2">
            <desc shapeID="2" type="0" basicInfo-basicType="0" basicInfo-roundedRectRadius="12" basicInfo-polygonSides="6" basicInfo-starPoints="5" bounding="rect(-12.4288,-17.1028,24.8575,34.2056)" text="" font-familyName="" font-pixelSize="20" font-bold="0" font-underline="0" font-alignment="1" strokeStyle="0" markerStart="0" markerEnd="0" shadowEnabled="0" shadowOffsetX="0" shadowOffsetY="2" shadowBlur="4" shadowOpacity="160" blurEnabled="0" blurRadius="4" transform="matrix(1.1465,0,0,1.14786,84.3739,19.6317)" pers-center="0,0" pers-size="0,0" pers-start="0,0" pers-end="0,0" locked="0" mesh="" flag=""/>
            <path id="shapePath2" d="M71.514,0.72154 L70.2093,3.90687 C69.9731,4.48424 70.2471,5.13508 70.8169,5.38876 C83.77,11.166 92.3894,23.9566 92.8904,38.1454 C92.9122,38.7698 93.412,39.2668 94.0357,39.2634 L97.4741,39.2439 C98.1173,39.2404 98.6435,38.7067 98.6229,38.0639 C98.0898,21.6024 88.0831,6.75357 73.0377,0.0948086 C72.4484,-0.163464 71.757,0.125801 71.514,0.72154 Z" style="stroke:none;fill-rule:nonzero;fill:#666666;fill-opacity:1;"/>
        </g>
        <g id="Shape3">
            <desc shapeID="3" type="0" basicInfo-basicType="0" basicInfo-roundedRectRadius="12" basicInfo-polygonSides="6" basicInfo-starPoints="5" bounding="rect(-9.32553,-12.5032,18.6511,25.0063)" text="" font-familyName="" font-pixelSize="20" font-bold="0" font-underline="0" font-alignment="1" strokeStyle="0" markerStart="0" markerEnd="0" shadowEnabled="0" shadowOffsetX="0" shadowOffsetY="2" shadowBlur="4" shadowOpacity="160" blurEnabled="0" blurRadius="4" transform="matrix(1.1465,0,0,1.14786,23.5385,24.9758)" pers-center="0,0" pers-size="0,0" pers-start="0,0" pers-end="0,0" locked="0" mesh="" flag=""/>
            <path id="shapePath3" d="M32.8392,11.345 L34.1451,14.5338 C34.3813,15.11 34.1084,15.7563 33.5432,16.0168 C24.8505,20.0332 19.0503,28.6388 18.586,38.2131 C18.5562,38.8352 18.0598,39.3311 17.4372,39.3277 L13.9954,39.3082 C13.3511,39.3047 12.8214,38.7687 12.8478,38.1247 C13.35,26.2822 20.5339,15.6231 31.3133,10.7229 C31.9003,10.4566 32.595,10.7481 32.8392,11.345 Z" style="stroke:none;fill-rule:nonzero;fill:#666666;fill-opacity:1;"/>
        </g>
        <g id="Shape4">
            <desc shapeID="4" type="0" basicInfo-basicType="0" basicInfo-roundedRectRadius="12" basicInfo-polygonSides="6" basicInfo-starPoints="5" bounding="rect(-12.4288,-17.1028,24.8575,34.2056)" text="" font-familyName="" font-pixelSize="20" font-bold="0" font-underline="0" font-alignment="1" strokeStyle="0" markerStart="0" markerEnd="0" shadowEnabled="0" shadowOffsetX="0" shadowOffsetY="2" shadowBlur="4" shadowOpacity="160" blurEnabled="0" blurRadius="4" transform="matrix(1.1465,0,0,1.14786,15.6261,19.6317)" pers-center="0,0" pers-size="0,0" pers-start="0,0" pers-end="0,0" locked="0" mesh="" flag=""/>
            <path id="shapePath4" d="M28.486,0.72154 L29.7907,3.90687 C30.0269,4.48424 29.7529,5.13508 29.1831,5.38876 C16.23,11.166 7.61061,23.9566 7.10959,38.1454 C7.08781,38.7698 6.58794,39.2668 5.96424,39.2634 L2.5259,39.2439 C1.88272,39.2404 1.35648,38.7067 1.37712,38.0639 C1.91024,21.6024 11.9169,6.75357 26.9623,0.0948086 C27.5516,-0.163464 28.2429,0.125801 28.486,0.72154 Z" style="stroke:none;fill-rule:nonzero;fill:#666666;fill-opacity:1;"/>
        </g>
        <g id="Shape5">
            <desc shapeID="5" type="0" basicInfo-basicType="0" basicInfo-roundedRectRadius="12" basicInfo-polygonSides="6" basicInfo-starPoints="5" bounding="rect(-29.789,-33.8165,59.578,67.633)" text="" font-familyName="" font-pixelSize="20" font-bold="0" font-underline="0" font-alignment="1" strokeStyle="0" markerStart="0" markerEnd="0" shadowEnabled="0" shadowOffsetX="0" shadowOffsetY="2" shadowBlur="4" shadowOpacity="160" blurEnabled="0" blurRadius="4" transform="matrix(1.1465,0,0,1.14786,50,49.7715)" pers-center="0,0" pers-size="0,0" pers-start="0,0" pers-end="0,0" locked="0" mesh="" flag=""/>
            <path id="shapePath5" d="M83.3068,62.7372 L77.1834,56.4423 L77.1834,44.7743 C77.1834,33.1395 70.309,23.1428 60.0043,19.1012 C58.9702,14.4431 54.8772,10.9548 50,10.9548 C45.1228,10.9548 41.0298,14.4431 39.9957,19.1012 C29.691,23.1428 22.8166,33.1395 22.8166,44.7743 L22.8166,56.4423 L16.6932,62.7372 C16.1509,63.2951 15.847,64.0424 15.847,64.8206 L15.847,73.7097 C15.847,75.3064 17.1403,76.6011 18.7351,76.6011 L38.0019,76.6011 C38.0168,82.989 43.6163,88.5883 50,88.5883 C56.3837,88.5883 61.9832,82.989 61.9981,76.6 L81.2649,76.6 C82.8597,76.6 84.1529,75.3052 84.1529,73.7085 L84.1529,64.8195 C84.1529,64.0424 83.8491,63.2951 83.3068,62.7372 M50,82.8054 C46.5869,82.8054 43.794,79.5845 43.7791,76.6011 L56.222,76.6011 C56.206,79.5845 53.4131,82.8054 50,82.8054 M78.3769,70.8171 L21.6231,70.8171 L21.6231,65.957 L28.5926,58.7932 C28.5926,51.9393 28.5926,46.0209 28.5926,44.7743 C28.5926,34.2335 35.5622,25.5717 45.5195,23.463 C45.5195,22.3875 45.5195,21.6196 45.5195,21.4107 C45.5195,18.9186 47.5109,16.7377 50,16.7377 C52.489,16.7377 54.4805,18.9186 54.4805,21.4107 C54.4805,21.6184 54.4805,22.3875 54.4805,23.463 C64.4367,25.5717 71.4073,34.2323 71.4073,44.7743 C71.4073,46.332 71.4073,51.9381 71.4073,58.7932 L78.3769,65.957 L78.3769,70.8171 Z" style="stroke:none;fill-rule:nonzero;fill:#666666;fill-opacity:1;"/>
        </g>
    </g>
</svg>
